<svg id="Icon_ionic-md-close-circle-outline" data-name="Icon ionic-md-close-circle-outline" xmlns="http://www.w3.org/2000/svg" width="25" height="25" viewBox="0 0 25 25">
    <path id="Path_6426" data-name="Path 6426" class="cls-1" d="M15.875 5.9A9.972 9.972 0 1 1 8.82 8.82a9.935 9.935 0 0 1 7.055-2.92m0-2.524a12.5 12.5 0 1 0 12.5 12.5 12.5 12.5 0 0 0-12.5-12.5z" transform="translate(-3.375 -3.375)"/>
    <path id="Path_6427" data-name="Path 6427" class="cls-1" d="m25.313 23.266-2.046 2.046L18 20.046l-5.266 5.266-2.046-2.046L15.954 18l-5.266-5.266 2.046-2.046L18 15.954l5.266-5.266 2.046 2.046L20.046 18z" transform="translate(-5.5 -5.5)"/>
</svg>
