<svg xmlns="http://www.w3.org/2000/svg" xml:space="preserve" overflow="visible" viewBox="0 0 39.6 53.4">
  <radialGradient id="a" cx="19.94" cy="56.88" r="6.3" gradientTransform="matrix(1 0 0 .3448 0 31.76)" gradientUnits="userSpaceOnUse">
    <stop offset="0"/>
    <stop offset="1" stop-opacity="0"/>
  </radialGradient>
  <path fill="url(#a)" d="M28.5 51.4c-.2 1.1-4 1.9-8.6 1.9s-8.4-.8-8.6-1.9c-.2-1.1 3.6-2.1 8.6-2.1s8.8 1 8.6 2.1z"/>
  <linearGradient id="b" x1="14.94" x2="24.94" y1="28.12" y2="28.12" gradientUnits="userSpaceOnUse">
    <stop offset="0" stop-color="#636363"/>
    <stop offset=".58" stop-color="#fff"/>
    <stop offset="1"/>
  </linearGradient>
  <path fill="url(#b)" d="m14.9 4.3 2.7 47.4c1.6.4 3.1.4 4.6 0l2.7-47.4h-10z"/>
  <path d="m16.4 28.8.1 3.1c1.1.1 2.3.2 3.4.2s2.3-.1 3.4-.2l.1-3.1c-1.2.2-2.4.2-3.6.2-1.1 0-2.2-.1-3.4-.2z" opacity=".46"/>
  <path fill="red" d="M19.8 0C8.9 0 0 8.9 0 19.8v.9a19.83 19.83 0 0 0 19.8 18.9c.8 0 1.5 0 2.2-.1 9.6-1.1 17.1-9 17.6-18.8v-.9C39.6 8.9 30.8 0 19.8 0z"/>
  <radialGradient id="c" cx="19.82" cy="19.82" r="19.82" gradientUnits="userSpaceOnUse">
    <stop offset="0" stop-opacity="0"/>
    <stop offset=".65" stop-opacity=".2"/>
    <stop offset=".95" stop-opacity=".54"/>
    <stop offset="1" stop-opacity=".6"/>
  </radialGradient>
  <path fill="url(#c)" d="M19.8 0C8.9 0 0 8.9 0 19.8v.9a19.83 19.83 0 0 0 19.8 18.9c.8 0 1.5 0 2.2-.1 9.6-1.1 17.1-9 17.6-18.8v-.9C39.6 8.9 30.8 0 19.8 0z"/>
  <path d="M32.2 29.1c-.5.6-1 1.1-1.5 1.7-.5.5-1.1 1-1.7 1.5-7.2 5.7-17.5 5.7-24.7-.1.5.6.9 1.1 1.5 1.7.2.1.4.3.7.5 7.2 6.6 18.2 6.9 25.7.9.6-.5 1.1-1 1.7-1.5.5-.5 1-1.1 1.5-1.7 6-7.6 5.7-18.5-.9-25.7-.3-.2-.5-.4-.7-.6-.5-.5-1.1-1-1.7-1.5 5.9 7.2 5.9 17.5.1 24.8z" opacity=".2"/>
</svg>